<?xml version="1.0" standalone="no"?>
<!DOCTYPE svg PUBLIC "-//W3C//DTD SVG 20010904//EN"
 "http://www.w3.org/TR/2001/REC-SVG-20010904/DTD/svg10.dtd">
<svg version="1.0" xmlns="http://www.w3.org/2000/svg"
 width="537.000000pt" height="319.000000pt" viewBox="0 0 537.000000 319.000000"
 preserveAspectRatio="xMidYMid meet">

<g transform="translate(0.000000,319.000000) scale(0.100000,-0.100000)"
fill="#000000" stroke="none">
<path d="M930 3094 c-209 -55 -373 -227 -431 -452 -25 -99 -27 -277 -3 -286 9
-3 109 -6 224 -6 223 0 235 -3 228 -52 l-3 -23 -222 -3 -223 -2 0 -30 c0 -16
-4 -32 -10 -35 -16 -10 -12 -52 6 -59 9 -3 109 -6 223 -6 223 0 231 -2 231
-52 l0 -28 -225 0 -225 0 0 -29 c0 -17 -4 -33 -10 -36 -16 -10 -12 -52 6 -59
9 -3 109 -6 223 -6 223 0 231 -2 231 -52 l0 -28 -225 0 -225 0 0 -29 c0 -17
-5 -33 -10 -36 -16 -10 -12 -52 6 -59 9 -3 109 -6 223 -6 223 0 231 -2 231
-52 l0 -28 -225 0 -225 0 0 -29 c0 -17 -5 -33 -10 -36 -16 -10 -12 -290 5
-364 25 -105 72 -188 150 -266 109 -109 242 -165 395 -165 180 0 388 100 493
238 95 125 127 243 127 472 l0 150 -235 0 -235 0 0 40 0 39 198 4 c108 2 213
8 232 13 34 9 35 12 38 62 l3 52 -235 0 -236 0 0 40 0 39 198 4 c108 2 213 8
232 13 34 9 35 12 38 62 l3 52 -235 0 -236 0 0 40 0 39 198 4 c108 2 213 8
232 13 34 9 35 12 38 62 l3 52 -235 0 -236 0 0 40 0 40 194 0 c107 0 197 4
200 9 3 5 22 12 41 15 l35 7 0 102 c0 56 -7 134 -15 172 -45 214 -209 384
-422 440 -72 19 -221 18 -293 -1z"/>
<path d="M2085 2172 c-39 -52 -45 -81 -45 -209 l0 -124 38 7 c49 9 50 11 54
69 l3 50 75 3 c41 1 82 -2 90 -7 8 -6 17 -32 20 -63 l5 -53 35 3 c19 2 39 7
43 12 5 4 7 73 5 153 -4 192 1 187 -175 187 -127 -1 -128 -1 -148 -28z m221
-89 c17 -17 13 -18 -75 -21 -52 -1 -96 -1 -99 2 -2 3 -2 12 1 21 10 23 149 21
173 -2z"/>
<path d="M2460 2165 c0 -19 -4 -35 -10 -35 -5 0 -10 -24 -10 -52 1 -43 9 -70
48 -143 l47 -90 39 2 c43 3 70 22 93 67 16 30 16 30 32 9 9 -11 24 -35 34 -53
16 -30 20 -32 55 -25 51 9 68 27 118 127 40 79 44 95 44 158 l0 70 -35 0 c-33
0 -35 -2 -35 -35 0 -19 -4 -35 -10 -35 -5 0 -10 -21 -10 -47 -1 -59 -40 -142
-57 -121 -36 45 -63 120 -63 178 l0 60 -35 0 c-33 0 -35 -2 -35 -35 0 -19 -4
-35 -10 -35 -5 0 -10 -20 -10 -45 0 -40 -35 -135 -49 -135 -4 0 -21 27 -38 59
-28 50 -33 70 -33 125 l0 66 -35 0 c-33 0 -35 -2 -35 -35z"/>
<path d="M3005 2168 c-4 -18 -8 -100 -9 -183 l-1 -150 134 -3 c83 -2 138 1
145 8 5 5 25 10 43 10 31 0 33 2 33 35 l0 35 -140 0 c-78 0 -140 4 -140 9 0
37 12 41 111 41 59 0 99 4 99 10 0 6 16 10 35 10 33 0 35 2 35 35 l0 35 -140
0 c-77 0 -140 3 -140 8 1 24 23 31 110 35 52 3 112 8 133 12 35 7 37 9 37 46
l0 39 -169 0 -169 0 -7 -32z"/>
<path d="M3433 2177 c-51 -52 -69 -151 -33 -187 17 -17 33 -20 116 -20 98 0
134 -10 134 -35 0 -12 -18 -15 -90 -15 -53 0 -90 4 -90 10 0 6 -16 10 -36 10
-35 0 -36 -1 -32 -30 3 -16 1 -30 -4 -30 -15 0 -8 -38 8 -44 9 -3 60 -6 114
-6 145 0 213 29 226 96 8 45 -2 81 -31 110 -23 22 -31 24 -135 24 -104 0 -110
1 -110 20 0 20 5 20 128 18 70 -1 133 1 139 5 8 5 9 17 3 37 -16 56 -27 60
-162 59 -113 0 -125 -2 -145 -22z"/>
<path d="M3819 2182 c-36 -37 -49 -91 -49 -208 0 -144 0 -144 151 -144 115 0
189 20 203 55 3 9 6 74 6 143 -1 175 2 172 -167 171 -106 0 -131 -3 -144 -17z
m209 -94 c7 -7 12 -43 12 -90 l0 -78 -90 0 -90 0 0 90 0 90 78 0 c47 0 83 -5
90 -12z"/>
<path d="M4213 2178 c-42 -45 -54 -96 -51 -219 l3 -114 30 3 c56 5 55 3 55
132 l0 120 41 0 c22 0 49 -5 59 -10 27 -14 40 -71 40 -169 0 -72 2 -82 16 -77
9 3 27 6 40 6 24 0 24 1 24 94 0 51 3 108 6 125 6 29 9 31 53 31 26 0 52 -5
59 -12 8 -8 12 -50 12 -124 0 -62 3 -115 8 -117 4 -2 24 -2 45 0 l37 5 0 153
c0 194 -1 195 -121 195 -72 0 -86 -3 -107 -22 l-24 -23 -18 23 c-16 20 -27 22
-102 22 -75 0 -87 -3 -105 -22z"/>
<path d="M4750 2171 c0 -17 -4 -33 -10 -36 -6 -4 -10 -65 -10 -150 0 -121 2
-144 16 -149 25 -10 269 -7 280 3 5 5 23 11 39 13 26 3 30 8 33 36 l3 32 -140
0 -141 0 0 25 0 25 105 0 c63 0 105 4 105 10 0 6 16 10 35 10 33 0 35 2 35 35
l0 35 -140 0 c-133 0 -140 1 -140 20 0 19 7 20 98 20 54 0 102 4 108 9 5 5 23
11 39 13 27 3 30 7 33 41 l3 37 -175 0 -176 0 0 -29z"/>
<path d="M2360 1574 c-16 -37 -20 -69 -20 -171 0 -125 0 -125 23 -119 12 3 32
6 45 6 20 0 22 5 22 55 l0 55 46 0 c25 0 55 -5 67 -11 29 -15 66 -60 67 -81 0
-24 10 -27 58 -21 39 5 42 8 42 37 0 17 -9 46 -20 64 l-20 33 20 26 c25 32 28
118 4 151 -14 21 -21 22 -165 22 l-150 0 -19 -46z m241 -51 c23 -23 -3 -33
-87 -33 -84 0 -84 0 -84 26 l0 26 80 -3 c43 -2 84 -9 91 -16z"/>
<path d="M2752 1580 c-16 -53 -16 -282 0 -298 15 -15 264 -17 273 -2 3 6 15
10 25 10 41 0 50 35 50 187 l0 143 -35 0 c-32 0 -35 -2 -35 -29 0 -17 -4 -33
-10 -36 -6 -3 -10 -48 -10 -100 l0 -94 -42 -6 c-24 -4 -65 -5 -93 -3 l-50 3
-3 133 -3 132 -27 0 c-23 0 -29 -6 -40 -40z"/>
<path d="M3178 1603 c-23 -26 -48 -91 -48 -123 0 -15 8 -38 19 -51 17 -21 28
-24 125 -27 75 -3 109 -8 117 -18 18 -22 6 -27 -81 -32 -69 -4 -83 -2 -93 13
-8 10 -23 16 -37 13 -20 -2 -26 -11 -32 -47 -4 -24 -5 -48 -2 -52 8 -14 239
-11 271 3 58 25 73 47 73 108 0 87 -17 99 -155 102 -107 3 -110 4 -113 27 l-4
24 89 -7 c111 -8 111 -8 151 0 26 5 32 11 32 33 0 47 -13 51 -160 51 -118 0
-139 -2 -152 -17z"/>
<path d="M3582 1613 c-19 -7 -52 -79 -54 -116 -3 -80 27 -97 169 -97 70 0 84
-3 92 -19 9 -16 6 -19 -27 -25 -71 -11 -140 -7 -150 10 -5 9 -18 14 -33 12
-18 -2 -25 -10 -27 -33 -2 -16 -9 -33 -14 -36 -6 -4 -8 -14 -5 -23 5 -13 25
-16 123 -16 189 0 229 21 229 120 0 92 -12 100 -151 100 -62 0 -115 4 -118 9
-4 5 -3 16 0 25 7 19 97 22 158 5 27 -8 41 -8 49 0 6 6 24 11 39 11 22 0 28 5
28 21 0 11 -5 29 -10 40 -10 17 -22 19 -148 18 -75 0 -143 -3 -150 -6z"/>
<path d="M3940 1591 c0 -17 -4 -33 -10 -36 -6 -4 -10 -62 -10 -142 l0 -135 23
6 c12 3 32 6 45 6 22 0 22 1 22 165 l0 165 -35 0 c-32 0 -35 -2 -35 -29z"/>
<path d="M4082 1608 c-35 -45 -42 -79 -42 -204 0 -126 0 -126 23 -120 12 3 32
6 45 6 20 0 22 5 22 55 l0 55 78 0 c47 0 83 -5 90 -12 7 -7 12 -31 12 -54 0
-51 5 -55 53 -47 l37 6 0 144 c0 80 -5 153 -10 164 -10 17 -23 19 -154 19
-103 0 -146 -4 -154 -12z m212 -87 c26 -22 2 -31 -86 -31 -77 0 -78 0 -78 26
l0 26 74 -4 c43 -2 80 -9 90 -17z"/>
<path d="M4472 1608 c-31 -39 -42 -94 -42 -210 l0 -120 31 6 c17 3 38 6 45 6
11 0 14 20 14 90 0 50 3 90 8 90 4 0 30 -37 59 -83 73 -116 83 -124 134 -107
72 24 79 43 79 201 l0 139 -35 0 c-32 0 -35 -3 -35 -28 0 -15 -4 -32 -10 -38
-5 -5 -10 -42 -12 -82 l-3 -74 -73 111 c-72 110 -73 111 -111 111 -21 0 -43
-6 -49 -12z"/>
<path d="M290 1501 c0 -17 -4 -33 -10 -36 -15 -10 -12 -207 5 -289 33 -158
104 -284 223 -397 95 -91 181 -142 292 -175 146 -43 135 -27 135 -189 l0 -140
-50 -7 c-214 -33 -349 -83 -418 -156 -19 -19 -28 -38 -25 -53 l3 -24 593 -3
c512 -2 597 0 622 13 16 8 38 15 50 15 28 0 25 23 -9 59 -57 61 -249 130 -406
146 -33 3 -73 8 -90 10 l-30 5 3 150 c2 119 6 150 17 150 29 0 189 60 253 95
192 106 333 281 393 487 15 53 22 114 26 221 l6 147 -54 0 -55 0 -11 -42 c-7
-24 -16 -104 -22 -178 -15 -208 -62 -312 -199 -442 -123 -116 -282 -178 -456
-178 -115 0 -198 20 -306 72 -68 33 -101 57 -170 127 -148 149 -200 281 -200
508 l0 133 -55 0 c-54 0 -55 0 -55 -29z"/>
<path d="M3350 1021 c0 -17 -4 -33 -10 -36 -6 -4 -10 -63 -10 -145 l0 -139 33
5 c17 3 38 7 45 10 9 2 12 45 12 169 l0 165 -35 0 c-32 0 -35 -2 -35 -29z"/>
<path d="M3467 1013 c-8 -48 -4 -53 47 -53 23 0 47 -5 54 -12 8 -8 12 -50 12
-124 0 -62 3 -115 8 -117 4 -2 24 -2 44 0 l37 5 3 121 c3 113 4 122 23 125 11
2 34 10 52 18 17 8 38 14 47 14 11 0 16 9 16 30 l0 30 -169 0 -168 0 -6 -37z"/>
</g>
</svg>
